<svg viewBox="0 0 1240 1800" xmlns="http://www.w3.org/2000/svg" font-family="Helvetica, Arial, sans-serif">
  <defs>
    <marker id="aBlue" viewBox="0 0 10 10" refX="9" refY="5" markerWidth="7" markerHeight="7" orient="auto-start-reverse">
      <path d="M0,0 L10,5 L0,10 z" fill="#2F5D76"/>
    </marker>
    <marker id="aNeg" viewBox="0 0 10 10" refX="9" refY="5" markerWidth="7" markerHeight="7" orient="auto-start-reverse">
      <path d="M0,0 L10,5 L0,10 z" fill="#A34A38"/>
    </marker>
    <marker id="aGray" viewBox="0 0 10 10" refX="9" refY="5" markerWidth="7" markerHeight="7" orient="auto-start-reverse">
      <path d="M0,0 L10,5 L0,10 z" fill="#8896A3"/>
    </marker>
    <style>
      .h1   { font-size: 26px; font-weight: bold; fill: #22303C; }
      .h2   { font-size: 13px; fill: #5B6B7A; }
      .disc { font-size: 11px; font-style: italic; fill: #7A8894; }
      .leg  { font-size: 10.5px; fill: #5B6B7A; }
      .st   { font-size: 15px; font-weight: bold; fill: #24506B; }
      .stA  { font-size: 15px; font-weight: bold; fill: #7A5714; }
      .bd   { font-size: 11px; fill: #37424D; }
      .num  { font-size: 14px; font-weight: bold; fill: #FFFFFF; }
      .mono { font-family: ui-monospace, 'SF Mono', Consolas, Menlo, monospace; }
      .chip { font-size: 10px; fill: #24506B; }
      .badge{ font-size: 10.5px; fill: #FFFFFF; }
      .fT   { font-size: 9.5px; font-weight: bold; fill: #7A8894; letter-spacing: 1px; }
      .fM   { font-size: 10.5px; fill: #2B3A46; }
      .fN   { font-size: 9.5px; font-style: italic; fill: #7A8894; }
      .lbl  { font-size: 9.5px; font-style: italic; fill: #7A8894; }
      .neg  { font-size: 9px; fill: #A34A38; }
      .gate { font-size: 9px; font-weight: bold; fill: #7A5714; }
      .railT{ font-size: 10.5px; font-weight: bold; fill: #8F4636; letter-spacing: 1px; }
      .ft   { font-size: 10.5px; fill: #7A8894; }
    </style>
  </defs>

  <rect x="0" y="0" width="1240" height="1800" fill="#FFFFFF"/>

  <!-- ============ encabezado ============ -->
  <text x="40" y="54" class="h1">El ciclo de decisión, paso a paso</text>
  <text x="40" y="80" class="h2">Pasos del proceso · puntos de operación de los skills del agente · fórmulas e invariantes de funcionamiento</text>
  <text x="40" y="100" class="disc">Documento público — esquema genérico; todos los valores y umbrales son ilustrativos, sin datos reales.</text>

  <!-- leyenda -->
  <rect x="40" y="114" width="22" height="14" rx="3" fill="#FFFFFF" stroke="#2F5D76" stroke-width="1.4"/>
  <text x="68" y="125" class="leg">etapa del pipeline</text>
  <rect x="200" y="114" width="26" height="14" rx="7" fill="#2A7F76"/>
  <text x="232" y="125" class="leg">skill del agente (procedimiento versionado)</text>
  <polygon points="525,114 536,121 525,128 514,121" fill="#FBF4E4" stroke="#B07C2A" stroke-width="1.4"/>
  <text x="544" y="125" class="leg">gate del operador</text>
  <line x1="660" y1="121" x2="692" y2="121" stroke="#A34A38" stroke-width="1.6" stroke-dasharray="5 4"/>
  <text x="700" y="125" class="leg">negación tipada</text>
  <rect x="810" y="114" width="22" height="14" rx="2" fill="#FFFFFF" stroke="#D5DCE2"/>
  <rect x="810" y="114" width="3" height="14" fill="#2F5D76"/>
  <text x="840" y="125" class="leg">fórmula / invariante</text>

  <!-- ============ retroalimentación (métricas → paso 0) ============ -->
  <path d="M 395 1702 V 1745 H 1218 V 156 H 395 V 164" fill="none" stroke="#8896A3" stroke-width="1.4" stroke-dasharray="3 4" marker-end="url(#aGray)"/>
  <rect x="745" y="146" width="170" height="20" rx="4" fill="#FFFFFF" stroke="#C3D2DC"/>
  <text x="830" y="160" text-anchor="middle" class="mono chip">pulso{estado de conjunto}</text>

  <!-- ============ rail de negaciones ============ -->
  <rect x="48" y="290" width="58" height="800" rx="8" fill="#FBF0EC" stroke="#C89383" stroke-width="1.2"/>
  <text x="77" y="690" text-anchor="middle" transform="rotate(-90 77 690)" class="railT">NEGACIONES TIPADAS — outputs de primera clase, con causa</text>
  <line x1="180" y1="410" x2="112" y2="410" stroke="#A34A38" stroke-width="1.5" stroke-dasharray="5 4" marker-end="url(#aNeg)"/>
  <text x="176" y="402" text-anchor="end" class="mono neg">pasada vacía</text>
  <line x1="180" y1="600" x2="112" y2="600" stroke="#A34A38" stroke-width="1.5" stroke-dasharray="5 4" marker-end="url(#aNeg)"/>
  <text x="176" y="592" text-anchor="end" class="mono neg">no-validada{causa}</text>
  <line x1="180" y1="810" x2="112" y2="810" stroke="#A34A38" stroke-width="1.5" stroke-dasharray="5 4" marker-end="url(#aNeg)"/>
  <text x="176" y="802" text-anchor="end" class="mono neg">negación{causa}</text>
  <line x1="180" y1="1075" x2="112" y2="1075" stroke="#A34A38" stroke-width="1.5" stroke-dasharray="5 4" marker-end="url(#aNeg)"/>
  <text x="176" y="1067" text-anchor="end" class="mono neg">límite vencido</text>
  <line x1="77" y1="1090" x2="77" y2="1124" stroke="#A34A38" stroke-width="1.5" stroke-dasharray="5 4" marker-end="url(#aNeg)"/>
  <rect x="27" y="1128" width="130" height="60" rx="6" fill="#FBF0EC" stroke="#C89383" stroke-width="1.2"/>
  <text x="92" y="1150" text-anchor="middle" font-size="10.5" font-weight="bold" fill="#8F4636">LOG · BACKLOG</text>
  <text x="92" y="1165" text-anchor="middle" font-size="8.5" fill="#9A6252">asiento con causa;</text>
  <text x="92" y="1178" text-anchor="middle" font-size="8.5" fill="#9A6252">nada muere en silencio</text>

  <!-- ============ PASO 0 ============ -->
  <rect x="180" y="170" width="430" height="86" rx="8" fill="#FFFFFF" stroke="#2F5D76" stroke-width="1.5"/>
  <circle cx="180" cy="198" r="16" fill="#2F5D76"/>
  <text x="180" y="203" text-anchor="middle" class="num">0</text>
  <text x="208" y="200" class="st">PULSO DEL CONJUNTO</text>
  <text x="208" y="222" class="bd">Lectura del estado derivado antes de recorrer el roster:</text>
  <text x="208" y="238" class="bd">contexto del conjunto — nunca lente de lectura por posición.</text>

  <rect x="876" y="170" width="324" height="86" rx="6" fill="#FFFFFF" stroke="#D5DCE2" stroke-width="1.2"/>
  <rect x="876" y="170" width="4" height="86" fill="#2F5D76"/>
  <text x="896" y="192" class="fT">DERIVACIÓN PURA</text>
  <text x="896" y="214" class="mono fM">estado_t = f(ledger_t, fichas_t)</text>
  <text x="896" y="238" class="fN">sin estado propio: no se edita, se regenera</text>
  <line x1="610" y1="213" x2="872" y2="213" stroke="#B9C4CD" stroke-width="1" stroke-dasharray="2 3"/>

  <line x1="300" y1="256" x2="300" y2="296" stroke="#2F5D76" stroke-width="2" marker-end="url(#aBlue)"/>

  <!-- ============ PASO 1 ============ -->
  <rect x="180" y="300" width="430" height="140" rx="8" fill="#FFFFFF" stroke="#2F5D76" stroke-width="1.5"/>
  <rect x="424" y="287" width="172" height="26" rx="13" fill="#2A7F76"/>
  <text x="510" y="304" text-anchor="middle" class="mono badge">skill · detección-y-ruteo</text>
  <circle cx="180" cy="330" r="16" fill="#2F5D76"/>
  <text x="180" y="335" text-anchor="middle" class="num">1</text>
  <text x="208" y="335" class="st">DETECCIÓN Y RUTEO</text>
  <text x="208" y="360" class="bd">Varias pasadas por jornada sobre el roster completo (posiciones +</text>
  <text x="208" y="376" class="bd">vigilancia), cada activo bajo su propia hipótesis. Detecta y rutea</text>
  <text x="208" y="392" class="bd">al destino correcto; no evalúa. Los triggers se leen de la ficha</text>
  <text x="208" y="408" class="bd">viva de cada activo, nunca de la memoria de sesión.</text>

  <rect x="876" y="300" width="324" height="120" rx="6" fill="#FFFFFF" stroke="#D5DCE2" stroke-width="1.2"/>
  <rect x="876" y="300" width="4" height="120" fill="#2F5D76"/>
  <text x="896" y="322" class="fT">INVARIANTE DE COBERTURA</text>
  <text x="896" y="344" class="mono fM">cobertura = revisadas / roster ≡ 1</text>
  <text x="896" y="362" class="mono fM">hallazgo{puerta, destino}</text>
  <text x="896" y="388" class="fN">el roster no es recortable: la omisión es visible</text>
  <line x1="610" y1="365" x2="872" y2="365" stroke="#B9C4CD" stroke-width="1" stroke-dasharray="2 3"/>

  <line x1="300" y1="440" x2="300" y2="501" stroke="#2F5D76" stroke-width="2" marker-end="url(#aBlue)"/>
  <text x="318" y="470" class="lbl">si hay lectura en cuestión</text>

  <!-- bypass detección → evaluación -->
  <path d="M 580 440 C 700 520, 700 660, 616 730" fill="none" stroke="#2F5D76" stroke-width="1.6" marker-end="url(#aBlue)"/>
  <text x="700" y="548" class="lbl">hallazgo directo</text>
  <rect x="652" y="580" width="112" height="20" rx="4" fill="#EDF2F6" stroke="#C3D2DC"/>
  <text x="708" y="594" text-anchor="middle" class="mono chip">hallazgo{puerta}</text>

  <!-- ============ PASO 2 ============ -->
  <rect x="180" y="505" width="430" height="130" rx="8" fill="#FFFFFF" stroke="#2F5D76" stroke-width="1.5"/>
  <rect x="393" y="492" width="203" height="26" rx="13" fill="#2A7F76"/>
  <text x="494" y="509" text-anchor="middle" class="mono badge">skill · validación-de-contexto</text>
  <circle cx="180" cy="535" r="16" fill="#2F5D76"/>
  <text x="180" y="540" text-anchor="middle" class="num">2</text>
  <text x="208" y="540" class="st">VALIDACIÓN DE CONTEXTO</text>
  <text x="208" y="565" class="bd">Valida una lectura antes de construir hipótesis sobre ella: deriva</text>
  <text x="208" y="581" class="bd">la conducta que los actores deberían exhibir si la lectura fuera</text>
  <text x="208" y="597" class="bd">correcta (espejo) y la contrasta con la efectiva. El desvío es la</text>
  <text x="208" y="613" class="bd">señal; el router de plano separa señal de recalibración.</text>

  <rect x="876" y="505" width="324" height="150" rx="6" fill="#FFFFFF" stroke="#D5DCE2" stroke-width="1.2"/>
  <rect x="876" y="505" width="4" height="150" fill="#2F5D76"/>
  <text x="896" y="527" class="fT">PRIMITIVA MEDIR-GAP</text>
  <text x="896" y="549" class="mono fM">g = observado − esperado</text>
  <text x="896" y="567" class="mono fM">|g| ≤ banda → coincide</text>
  <text x="896" y="585" class="mono fM">signo(g) inesperado → gap cualitativo</text>
  <text x="896" y="603" class="mono fM">|g| &gt; banda → gap cuantitativo</text>
  <text x="896" y="629" class="fN">la banda la declara quien deriva el espejo</text>
  <line x1="610" y1="570" x2="872" y2="570" stroke="#B9C4CD" stroke-width="1" stroke-dasharray="2 3"/>

  <line x1="300" y1="635" x2="300" y2="686" stroke="#2F5D76" stroke-width="2" marker-end="url(#aBlue)"/>
  <rect x="320" y="650" width="248" height="20" rx="4" fill="#EDF2F6" stroke="#C3D2DC"/>
  <text x="444" y="664" text-anchor="middle" class="mono chip">terminal{validada | gaps | no-validada}</text>

  <!-- ============ PASO 3 ============ -->
  <rect x="180" y="690" width="430" height="150" rx="8" fill="#FFFFFF" stroke="#2F5D76" stroke-width="1.5"/>
  <rect x="381" y="677" width="215" height="26" rx="13" fill="#2A7F76"/>
  <text x="488" y="694" text-anchor="middle" class="mono badge">skill · evaluación (3 puertas)</text>
  <circle cx="180" cy="720" r="16" fill="#2F5D76"/>
  <text x="180" y="725" text-anchor="middle" class="num">3</text>
  <text x="208" y="725" class="st">EVALUACIÓN</text>
  <text x="208" y="750" class="bd">Tres puertas de entrada (contexto · hipótesis · activo), un solo</text>
  <text x="208" y="766" class="bd">tipo de output: tripleta validada o negación con causa. Las</text>
  <text x="208" y="782" class="bd">transiciones internas exigen detención y confirmación del</text>
  <text x="208" y="798" class="bd">operador (cortes dialógicos). El módulo no dimensiona ni</text>
  <text x="208" y="814" class="bd">ejecuta: entrega una acción cualitativa validada.</text>

  <rect x="876" y="690" width="324" height="170" rx="6" fill="#FFFFFF" stroke="#D5DCE2" stroke-width="1.2"/>
  <rect x="876" y="690" width="4" height="170" fill="#2F5D76"/>
  <text x="896" y="712" class="fT">PRIMITIVA REFUTAR · TEST DE CARRY</text>
  <text x="896" y="734" class="mono fM" font-size="10">sobrevive ⇔ realidad ∧ causalidad ∧ adversario</text>
  <text x="896" y="756" class="mono fM">S = (R + c) / σ</text>
  <text x="896" y="774" class="mono fM">S &lt; u1 → el capital estacionado compite</text>
  <text x="896" y="792" class="mono fM">S &gt; u2 → el activo supera el carry</text>
  <text x="896" y="818" class="fN">c: costo de oportunidad del capital estacionado;</text>
  <text x="896" y="832" class="fN">u1, u2: umbrales normados (ilustrativos)</text>
  <line x1="610" y1="765" x2="872" y2="765" stroke="#B9C4CD" stroke-width="1" stroke-dasharray="2 3"/>

  <line x1="300" y1="840" x2="300" y2="874" stroke="#2F5D76" stroke-width="2" marker-end="url(#aBlue)"/>
  <rect x="320" y="846" width="230" height="20" rx="4" fill="#EDF2F6" stroke="#C3D2DC"/>
  <text x="435" y="860" text-anchor="middle" class="mono chip">tripleta{activo, hipótesis, acción}</text>

  <!-- gate ¿actuar? -->
  <polygon points="300,878 327,905 300,932 273,905" fill="#FBF4E4" stroke="#B07C2A" stroke-width="1.5"/>
  <text x="300" y="909" text-anchor="middle" class="gate">¿actuar?</text>
  <text x="340" y="901" class="lbl">gate del operador —</text>
  <text x="340" y="915" class="lbl">sin este sí, el pipeline se detiene</text>
  <line x1="300" y1="932" x2="300" y2="964" stroke="#2F5D76" stroke-width="2" marker-end="url(#aBlue)"/>

  <!-- ============ PASO 4 ============ -->
  <rect x="180" y="968" width="430" height="140" rx="8" fill="#FFFFFF" stroke="#2F5D76" stroke-width="1.5"/>
  <rect x="368" y="955" width="228" height="26" rx="13" fill="#2A7F76"/>
  <text x="482" y="972" text-anchor="middle" class="mono badge">skill · planificación-de-ejecución</text>
  <circle cx="180" cy="998" r="16" fill="#2F5D76"/>
  <text x="180" y="1003" text-anchor="middle" class="num">4</text>
  <text x="208" y="1003" class="st">PLANIFICACIÓN DE EJECUCIÓN</text>
  <text x="208" y="1028" class="bd">Convierte la tripleta en una acción condicionada de cuatro</text>
  <text x="208" y="1044" class="bd">componentes. El cuarto —hasta cuándo o hasta dónde esperar—</text>
  <text x="208" y="1060" class="bd">es obligatorio: separa la disciplina de timing de la parálisis</text>
  <text x="208" y="1076" class="bd">y de la relajación silenciosa de la condición.</text>

  <rect x="876" y="968" width="324" height="140" rx="6" fill="#FFFFFF" stroke="#D5DCE2" stroke-width="1.2"/>
  <rect x="876" y="968" width="4" height="140" fill="#2F5D76"/>
  <text x="896" y="990" class="fT">ACCIÓN CONDICIONADA</text>
  <text x="896" y="1012" class="mono fM">A = qué × plazo × condición × límite</text>
  <text x="896" y="1030" class="mono fM">t &gt; límite → liberar(A)</text>
  <text x="896" y="1048" class="mono fM">  (con registro, sin ejecutar)</text>
  <text x="896" y="1074" class="fN">el límite se deriva del tipo de movimiento</text>
  <line x1="610" y1="1038" x2="872" y2="1038" stroke="#B9C4CD" stroke-width="1" stroke-dasharray="2 3"/>

  <line x1="300" y1="1108" x2="300" y2="1142" stroke="#2F5D76" stroke-width="2" marker-end="url(#aBlue)"/>
  <rect x="320" y="1114" width="244" height="20" rx="4" fill="#EDF2F6" stroke="#C3D2DC"/>
  <text x="442" y="1128" text-anchor="middle" class="mono chip">acción{qué, plazo, condición, límite}</text>

  <!-- gate colocar -->
  <polygon points="300,1146 327,1173 300,1200 273,1173" fill="#FBF4E4" stroke="#B07C2A" stroke-width="1.5"/>
  <text x="300" y="1177" text-anchor="middle" class="gate">colocar</text>
  <text x="340" y="1169" class="lbl">gate del operador —</text>
  <text x="340" y="1183" class="lbl">colocación manual, nunca automática</text>
  <line x1="300" y1="1200" x2="300" y2="1232" stroke="#2F5D76" stroke-width="2" marker-end="url(#aBlue)"/>

  <!-- ============ PASO 5 ============ -->
  <rect x="180" y="1236" width="430" height="120" rx="8" fill="#FBF4E4" stroke="#B07C2A" stroke-width="1.5"/>
  <circle cx="180" cy="1266" r="16" fill="#B07C2A"/>
  <text x="180" y="1271" text-anchor="middle" class="num">5</text>
  <text x="208" y="1271" class="stA">EJECUCIÓN — OPERADOR</text>
  <text x="208" y="1296" class="bd">El sistema arma la orden completa: instrumento, cantidad, precio,</text>
  <text x="208" y="1312" class="bd">chequeos de libro y de duplicados. El operador la coloca a mano;</text>
  <text x="208" y="1328" class="bd">el agente nunca dispara órdenes. Verificación post-fill vs. broker.</text>

  <rect x="876" y="1236" width="324" height="110" rx="6" fill="#FFFFFF" stroke="#D5DCE2" stroke-width="1.2"/>
  <rect x="876" y="1236" width="4" height="110" fill="#2F5D76"/>
  <text x="896" y="1258" class="fT">CALIDAD DE EJECUCIÓN</text>
  <text x="896" y="1280" class="mono fM">spread = (P_ejec − P_ref) / P_ref</text>
  <text x="896" y="1306" class="fN">se asienta por fill; auditable por lote</text>
  <line x1="610" y1="1290" x2="872" y2="1290" stroke="#B9C4CD" stroke-width="1" stroke-dasharray="2 3"/>

  <line x1="300" y1="1356" x2="300" y2="1390" stroke="#2F5D76" stroke-width="2" marker-end="url(#aBlue)"/>
  <rect x="320" y="1358" width="206" height="20" rx="4" fill="#EDF2F6" stroke="#C3D2DC"/>
  <text x="423" y="1372" text-anchor="middle" class="mono chip">fill{cantidad, precio, momento}</text>

  <!-- ============ PASO 6 ============ -->
  <rect x="180" y="1394" width="430" height="140" rx="8" fill="#FFFFFF" stroke="#2F5D76" stroke-width="1.5"/>
  <rect x="481" y="1381" width="115" height="26" rx="13" fill="#2A7F76"/>
  <text x="538" y="1398" text-anchor="middle" class="mono badge">skill · registro</text>
  <circle cx="180" cy="1424" r="16" fill="#2F5D76"/>
  <text x="180" y="1429" text-anchor="middle" class="num">6</text>
  <text x="208" y="1429" class="st">REGISTRO</text>
  <text x="208" y="1454" class="bd">Post-ejecución: asienta lo que ya ocurrió, sin operar ni decidir.</text>
  <text x="208" y="1470" class="bd">Captura en el acto la atribución del fill a su lote funcional y</text>
  <text x="208" y="1486" class="bd">tramo — el dato perecedero central: mañana ya no existe en</text>
  <text x="208" y="1502" class="bd">ninguna parte. Ledger append-only; flujos acreditados vs. estimados.</text>

  <rect x="876" y="1394" width="324" height="160" rx="6" fill="#FFFFFF" stroke="#D5DCE2" stroke-width="1.2"/>
  <rect x="876" y="1394" width="4" height="160" fill="#2F5D76"/>
  <text x="896" y="1416" class="fT">INVARIANTES DEL LEDGER</text>
  <text x="896" y="1438" class="mono fM">∀ activo: Σ lotes = posición del broker</text>
  <text x="896" y="1456" class="mono fM">banda_default = ⅓ · recorrido premisa</text>
  <text x="896" y="1474" class="mono fM">estatuto ∈ {verificado, estimado,</text>
  <text x="896" y="1492" class="mono fM">            ausente}</text>
  <text x="896" y="1518" class="fN">el invariante se verifica en cada asiento</text>
  <line x1="610" y1="1464" x2="872" y2="1464" stroke="#B9C4CD" stroke-width="1" stroke-dasharray="2 3"/>

  <line x1="300" y1="1534" x2="300" y2="1568" stroke="#2F5D76" stroke-width="2" marker-end="url(#aBlue)"/>
  <rect x="320" y="1540" width="212" height="20" rx="4" fill="#EDF2F6" stroke="#C3D2DC"/>
  <text x="426" y="1554" text-anchor="middle" class="mono chip">asiento{lote, atribución, patas}</text>

  <!-- ============ PASO 7 ============ -->
  <rect x="180" y="1572" width="430" height="130" rx="8" fill="#FFFFFF" stroke="#2F5D76" stroke-width="1.5"/>
  <circle cx="180" cy="1602" r="16" fill="#2F5D76"/>
  <text x="180" y="1607" text-anchor="middle" class="num">7</text>
  <text x="208" y="1607" class="st">MÉTRICAS DERIVADAS</text>
  <text x="208" y="1632" class="bd">Dashboard derivado-reactivo: regeneración incremental por evento</text>
  <text x="208" y="1648" class="bd">y total por reloj al cierre de jornada. Unidad de medición: el</text>
  <text x="208" y="1664" class="bd">lote funcional (mecanismo + horizonte + criterio de éxito);</text>
  <text x="208" y="1680" class="bd">cortes por activo, cluster, hipótesis, etiqueta y tramo.</text>

  <rect x="876" y="1572" width="324" height="150" rx="6" fill="#FFFFFF" stroke="#D5DCE2" stroke-width="1.2"/>
  <rect x="876" y="1572" width="4" height="150" fill="#2F5D76"/>
  <text x="896" y="1594" class="fT">SALUD DEL PROCESO · ESTRUCTURA</text>
  <text x="896" y="1616" class="mono fM">tasa de negación = negaciones / corridas</text>
  <text x="896" y="1634" class="mono fM">posición: Σ tramos = 100 % (duro→blando)</text>
  <text x="896" y="1652" class="mono fM">reducir → consumir del extremo blando</text>
  <text x="896" y="1678" class="fN">morder el tramo duro exige un semáforo explícito;</text>
  <text x="896" y="1692" class="fN">la tasa de negación mide la selectividad del filtro</text>
  <line x1="610" y1="1637" x2="872" y2="1637" stroke="#B9C4CD" stroke-width="1" stroke-dasharray="2 3"/>

  <!-- ============ pie ============ -->
  <text x="40" y="1770" class="ft">Los skills son procedimientos versionados que el agente instancia en los puntos marcados; el resto de las etapas las opera el humano o son derivaciones automáticas.</text>
  <text x="40" y="1786" class="disc">Documento público — esquema genérico; fórmulas y umbrales ilustrativos. No contiene posiciones, montos, plataformas ni operaciones reales.</text>
</svg>
